# xmcd
#
# Track frame offsets:
#   150
#   17766
#   33264
#   51305
#   71672
#   86456
#   102114
#   114857
#   133107
#   150840
#   164398
#   183471
#   202438
#   221405
#   244588
#
# Disc length: 3505 seconds
#
# Revision: 0
# Processed by: cddbd v1.5.2PL0 Copyright (c) Steve Scherf et al.
# Submitted via: GXTranscoder 2.0.1939
#
DISCID=c70daf0f
DTITLE=Djavu - Banda Djavu
DYEAR=1900
DGENRE=Country
TTITLE0=sempre te amei
TTITLE1=se voce quiser voltar
TTITLE2=te quero amor
TTITLE3=nave do amor
TTITLE4=faz o D da Djavu
TTITLE5=dança da calcinha
TTITLE6=novo amor
TTITLE7=de tanto te querer
TTITLE8=meteoro
TTITLE9=cd arranhado
TTITLE10=telefone
TTITLE11=maciota light
TTITLE12=quando eu te vi
TTITLE13=vou pra foliar
TTITLE14=sem titulo
EXTD=
EXTT0=
EXTT1=
EXTT2=
EXTT3=
EXTT4=
EXTT5=
EXTT6=
EXTT7=
EXTT8=
EXTT9=
EXTT10=
EXTT11=
EXTT12=
EXTT13=
EXTT14=
PLAYORDER=
